<?xml version="1.0" encoding="UTF-8" standalone="no"?>
<!-- Created with Inkscape (http://www.inkscape.org/) -->

<svg
   xmlns:dc="http://purl.org/dc/elements/1.1/"
   xmlns:cc="http://creativecommons.org/ns#"
   xmlns:rdf="http://www.w3.org/1999/02/22-rdf-syntax-ns#"
   xmlns:svg="http://www.w3.org/2000/svg"
   xmlns="http://www.w3.org/2000/svg"
   xmlns:sodipodi="http://sodipodi.sourceforge.net/DTD/sodipodi-0.dtd"
   xmlns:inkscape="http://www.inkscape.org/namespaces/inkscape"
   width="210mm"
   height="297mm"
   viewBox="0 0 744.09448819 1052.3622047"
   id="svg13642"
   version="1.1"
   inkscape:version="0.91 r13725"
   sodipodi:docname="background.svg">
  <defs
     id="defs13644">
    <clipPath
       clipPathUnits="userSpaceOnUse"
       id="clipPath16">
      <path
         d="m 0,720.03 800,0 L 800,0 0,0 0,720.03 Z"
         id="path18"
         inkscape:connector-curvature="0" />
    </clipPath>
    <clipPath
       clipPathUnits="userSpaceOnUse"
       id="clipPath24">
      <path
         d="m -4.5,725.858 808.999,0 0,-731.68612 -808.999,0 0,731.68612 z"
         id="path26"
         inkscape:connector-curvature="0" />
    </clipPath>
    <pattern
       patternTransform="translate(-974.668,1619.14)"
       patternUnits="userSpaceOnUse"
       x="0"
       y="0"
       width="71.9893"
       height="71.6426"
       id="pattern28">
      <g
         transform="translate(71.3457,-3.3301)"
         id="g30">
        <path
           d="m 0,0 c -0.045,0.092 -0.141,0.148 -0.242,0.148 l -6.822,0 3.023,10.481 c 0.035,0.127 -0.023,0.262 -0.143,0.318 -0.119,0.057 -0.263,0.022 -0.339,-0.086 L -14.83,-3.557 c -0.059,-0.082 -0.066,-0.189 -0.018,-0.281 0.043,-0.09 0.139,-0.148 0.241,-0.148 l 5.878,0 -3.744,-12.297 c -0.039,-0.127 0.018,-0.264 0.137,-0.322 0.037,-0.02 0.08,-0.03 0.121,-0.03 0.086,0 0.166,0.039 0.219,0.11 l 11.973,16.24 C 0.037,-0.203 0.045,-0.094 0,0"
           style="fill:#d5f1a1;fill-opacity:1;fill-rule:nonzero;stroke:none"
           id="path32" />
      </g>
      <g
         transform="translate(85.8457,21.1309)"
         id="g34">
        <path
           d="m 0,0 c -0.045,0.092 -0.141,0.148 -0.242,0.148 l -6.822,0 3.023,10.481 c 0.035,0.127 -0.023,0.262 -0.143,0.318 -0.119,0.057 -0.263,0.022 -0.339,-0.086 L -14.83,-3.557 c -0.059,-0.082 -0.066,-0.189 -0.018,-0.281 0.043,-0.09 0.139,-0.148 0.241,-0.148 l 5.878,0 -3.744,-12.297 c -0.039,-0.127 0.018,-0.264 0.137,-0.322 0.037,-0.02 0.08,-0.03 0.121,-0.03 0.086,0 0.166,0.039 0.219,0.11 l 11.973,16.24 C 0.037,-0.203 0.045,-0.094 0,0"
           style="fill:#d5f1a1;fill-opacity:1;fill-rule:nonzero;stroke:none"
           id="path36" />
      </g>
      <g
         transform="translate(67.7012,21.5801)"
         id="g38">
        <path
           d="m 0,0 c -0.045,0.092 -0.141,0.148 -0.242,0.148 l -6.822,0 3.023,10.481 c 0.035,0.127 -0.023,0.262 -0.143,0.318 -0.119,0.057 -0.263,0.022 -0.339,-0.086 L -14.828,-3.557 c -0.059,-0.082 -0.068,-0.189 -0.02,-0.281 0.045,-0.09 0.141,-0.148 0.241,-0.148 l 5.88,0 -3.746,-12.297 c -0.037,-0.127 0.02,-0.264 0.139,-0.322 0.037,-0.02 0.08,-0.03 0.121,-0.03 0.084,0 0.166,0.039 0.217,0.11 l 11.973,16.24 C 0.037,-0.203 0.045,-0.094 0,0"
           style="fill:#d5f1a1;fill-opacity:1;fill-rule:nonzero;stroke:none"
           id="path40" />
      </g>
      <g
         transform="translate(21.1182,0.4336)"
         id="g42">
        <path
           d="m 0,0 c -0.045,0.092 -0.141,0.148 -0.242,0.148 l -6.822,0 3.023,10.481 c 0.035,0.127 -0.023,0.262 -0.143,0.318 -0.119,0.057 -0.263,0.022 -0.339,-0.086 L -14.83,-3.557 c -0.059,-0.082 -0.066,-0.189 -0.018,-0.281 0.043,-0.09 0.139,-0.148 0.241,-0.148 l 5.878,0 -3.744,-12.297 c -0.039,-0.127 0.018,-0.264 0.137,-0.322 0.037,-0.02 0.08,-0.03 0.121,-0.03 0.086,0 0.166,0.039 0.219,0.11 l 11.973,16.24 C 0.037,-0.203 0.045,-0.094 0,0"
           style="fill:#d5f1a1;fill-opacity:1;fill-rule:nonzero;stroke:none"
           id="path44" />
      </g>
      <g
         transform="translate(13.8564,21.1309)"
         id="g46">
        <path
           d="m 0,0 c -0.045,0.092 -0.141,0.148 -0.242,0.148 l -6.822,0 3.023,10.481 c 0.035,0.127 -0.023,0.262 -0.143,0.318 -0.119,0.057 -0.263,0.022 -0.339,-0.086 L -14.83,-3.557 c -0.059,-0.082 -0.066,-0.189 -0.018,-0.281 0.043,-0.09 0.139,-0.148 0.241,-0.148 l 5.878,0 -3.744,-12.297 c -0.039,-0.127 0.018,-0.264 0.137,-0.322 0.037,-0.02 0.08,-0.03 0.121,-0.03 0.086,0 0.166,0.039 0.219,0.11 l 11.973,16.24 C 0.037,-0.203 0.045,-0.094 0,0"
           style="fill:#d5f1a1;fill-opacity:1;fill-rule:nonzero;stroke:none"
           id="path48" />
      </g>
      <g
         transform="translate(71.3457,68.3125)"
         id="g50">
        <path
           d="m 0,0 c -0.045,0.092 -0.141,0.148 -0.242,0.148 l -6.822,0 3.023,10.481 c 0.035,0.127 -0.023,0.262 -0.143,0.318 -0.119,0.057 -0.263,0.022 -0.339,-0.086 L -14.83,-3.557 c -0.059,-0.082 -0.066,-0.189 -0.018,-0.281 0.043,-0.09 0.139,-0.148 0.241,-0.148 l 5.878,0 -3.744,-12.297 c -0.039,-0.127 0.018,-0.264 0.137,-0.322 0.037,-0.02 0.08,-0.03 0.121,-0.03 0.086,0 0.166,0.039 0.219,0.11 l 11.973,16.24 C 0.037,-0.203 0.045,-0.094 0,0"
           style="fill:#d5f1a1;fill-opacity:1;fill-rule:nonzero;stroke:none"
           id="path52" />
      </g>
      <g
         transform="translate(78.4492,48.1748)"
         id="g54">
        <path
           d="m 0,0 c -0.047,0.092 -0.143,0.148 -0.244,0.148 l -6.822,0 3.023,10.481 c 0.037,0.127 -0.021,0.262 -0.143,0.318 -0.119,0.057 -0.263,0.022 -0.337,-0.086 L -14.83,-3.557 c -0.059,-0.082 -0.068,-0.189 -0.02,-0.281 0.045,-0.09 0.141,-0.148 0.241,-0.148 l 5.88,0 -3.746,-12.297 c -0.037,-0.127 0.02,-0.264 0.139,-0.322 0.037,-0.02 0.08,-0.03 0.121,-0.03 0.084,0 0.166,0.039 0.217,0.11 l 11.973,16.24 C 0.035,-0.203 0.043,-0.094 0,0"
           style="fill:#d5f1a1;fill-opacity:1;fill-rule:nonzero;stroke:none"
           id="path56" />
      </g>
      <g
         transform="translate(57.1133,36.2549)"
         id="g58">
        <path
           d="m 0,0 c -0.045,0.092 -0.141,0.148 -0.242,0.148 l -6.822,0 3.023,10.481 c 0.035,0.127 -0.023,0.262 -0.143,0.318 -0.119,0.057 -0.263,0.022 -0.339,-0.086 L -14.83,-3.557 c -0.059,-0.082 -0.066,-0.189 -0.018,-0.281 0.043,-0.09 0.139,-0.148 0.241,-0.148 l 5.878,0 -3.744,-12.297 c -0.039,-0.127 0.018,-0.264 0.137,-0.322 0.037,-0.02 0.08,-0.03 0.121,-0.03 0.086,0 0.166,0.039 0.219,0.11 l 11.973,16.24 C 0.037,-0.203 0.045,-0.094 0,0"
           style="fill:#d5f1a1;fill-opacity:1;fill-rule:nonzero;stroke:none"
           id="path60" />
      </g>
      <g
         transform="translate(35.3516,32.4912)"
         id="g62">
        <path
           d="m 0,0 c -0.045,0.092 -0.141,0.148 -0.242,0.148 l -6.822,0 3.023,10.481 c 0.035,0.127 -0.023,0.262 -0.143,0.318 -0.119,0.057 -0.263,0.022 -0.339,-0.086 L -14.83,-3.557 c -0.059,-0.082 -0.066,-0.189 -0.018,-0.281 0.043,-0.09 0.139,-0.148 0.241,-0.148 l 5.878,0 -3.744,-12.297 c -0.039,-0.127 0.018,-0.264 0.137,-0.322 0.037,-0.02 0.08,-0.03 0.121,-0.03 0.086,0 0.166,0.039 0.219,0.11 l 11.973,16.24 C 0.037,-0.203 0.045,-0.094 0,0"
           style="fill:#d5f1a1;fill-opacity:1;fill-rule:nonzero;stroke:none"
           id="path64" />
      </g>
      <g
         transform="translate(49.8516,56.9521)"
         id="g66">
        <path
           d="m 0,0 c -0.045,0.092 -0.141,0.148 -0.242,0.148 l -6.822,0 3.023,10.481 c 0.035,0.127 -0.023,0.262 -0.143,0.318 -0.119,0.057 -0.263,0.022 -0.339,-0.086 L -14.83,-3.557 c -0.059,-0.082 -0.066,-0.189 -0.018,-0.281 0.043,-0.09 0.139,-0.148 0.241,-0.148 l 5.878,0 -3.744,-12.297 c -0.039,-0.127 0.018,-0.264 0.137,-0.322 0.037,-0.02 0.08,-0.03 0.121,-0.03 0.086,0 0.166,0.039 0.219,0.11 l 11.973,16.24 C 0.037,-0.203 0.045,-0.094 0,0"
           style="fill:#d5f1a1;fill-opacity:1;fill-rule:nonzero;stroke:none"
           id="path68" />
      </g>
      <g
         transform="translate(42.4551,12.3535)"
         id="g70">
        <path
           d="m 0,0 c -0.047,0.092 -0.143,0.148 -0.244,0.148 l -6.822,0 3.023,10.481 c 0.037,0.127 -0.021,0.262 -0.143,0.318 -0.119,0.057 -0.263,0.022 -0.337,-0.086 L -14.83,-3.557 c -0.059,-0.082 -0.068,-0.189 -0.02,-0.281 0.045,-0.09 0.141,-0.148 0.241,-0.148 l 5.88,0 -3.746,-12.297 c -0.037,-0.127 0.02,-0.264 0.139,-0.322 0.037,-0.02 0.08,-0.03 0.121,-0.03 0.084,0 0.166,0.039 0.217,0.11 l 11.973,16.24 C 0.035,-0.203 0.043,-0.094 0,0"
           style="fill:#d5f1a1;fill-opacity:1;fill-rule:nonzero;stroke:none"
           id="path72" />
      </g>
      <g
         transform="translate(31.707,57.4014)"
         id="g74">
        <path
           d="m 0,0 c -0.045,0.092 -0.141,0.148 -0.242,0.148 l -6.822,0 3.023,10.481 c 0.035,0.127 -0.023,0.262 -0.143,0.318 -0.119,0.057 -0.263,0.022 -0.339,-0.086 L -14.828,-3.557 c -0.059,-0.082 -0.068,-0.189 -0.02,-0.281 0.045,-0.09 0.141,-0.148 0.241,-0.148 l 5.88,0 -3.746,-12.297 c -0.037,-0.127 0.02,-0.264 0.139,-0.322 0.037,-0.02 0.08,-0.03 0.121,-0.03 0.084,0 0.166,0.039 0.217,0.11 l 11.973,16.24 C 0.037,-0.203 0.045,-0.094 0,0"
           style="fill:#d5f1a1;fill-opacity:1;fill-rule:nonzero;stroke:none"
           id="path76" />
      </g>
      <g
         transform="translate(54.1797,0.5)"
         id="g78">
        <path
           d="m 0,0 c -0.045,0.092 -0.141,0.148 -0.242,0.148 l -6.822,0 3.023,10.481 c 0.035,0.127 -0.023,0.262 -0.143,0.318 -0.119,0.057 -0.263,0.022 -0.339,-0.086 L -14.83,-3.557 c -0.059,-0.082 -0.066,-0.189 -0.018,-0.281 0.043,-0.09 0.139,-0.148 0.241,-0.148 l 5.878,0 -3.744,-12.297 c -0.039,-0.127 0.018,-0.264 0.137,-0.322 0.037,-0.02 0.08,-0.03 0.121,-0.03 0.086,0 0.166,0.039 0.219,0.11 l 11.973,16.24 C 0.037,-0.203 0.045,-0.094 0,0"
           style="fill:#d5f1a1;fill-opacity:1;fill-rule:nonzero;stroke:none"
           id="path80" />
      </g>
      <g
         transform="translate(21.1182,72.0762)"
         id="g82">
        <path
           d="m 0,0 c -0.045,0.092 -0.141,0.148 -0.242,0.148 l -6.822,0 3.023,10.481 c 0.035,0.127 -0.023,0.262 -0.143,0.318 -0.119,0.057 -0.263,0.022 -0.339,-0.086 L -14.83,-3.557 c -0.059,-0.082 -0.066,-0.189 -0.018,-0.281 0.043,-0.09 0.139,-0.148 0.241,-0.148 l 5.878,0 -3.744,-12.297 c -0.039,-0.127 0.018,-0.264 0.137,-0.322 0.037,-0.02 0.08,-0.03 0.121,-0.03 0.086,0 0.166,0.039 0.219,0.11 l 11.973,16.24 C 0.037,-0.203 0.045,-0.094 0,0"
           style="fill:#d5f1a1;fill-opacity:1;fill-rule:nonzero;stroke:none"
           id="path84" />
      </g>
      <g
         transform="translate(6.46,48.1748)"
         id="g86">
        <path
           d="m 0,0 c -0.047,0.092 -0.143,0.148 -0.244,0.148 l -6.822,0 3.023,10.481 c 0.037,0.127 -0.021,0.262 -0.143,0.318 -0.119,0.057 -0.263,0.022 -0.337,-0.086 L -14.83,-3.557 c -0.059,-0.082 -0.068,-0.189 -0.02,-0.281 0.045,-0.09 0.141,-0.148 0.241,-0.148 l 5.88,0 -3.746,-12.297 c -0.037,-0.127 0.02,-0.264 0.139,-0.322 0.037,-0.02 0.08,-0.03 0.121,-0.03 0.084,0 0.166,0.039 0.217,0.11 l 11.973,16.24 C 0.035,-0.203 0.043,-0.094 0,0"
           style="fill:#d5f1a1;fill-opacity:1;fill-rule:nonzero;stroke:none"
           id="path88" />
      </g>
      <g
         transform="translate(18.1846,36.3213)"
         id="g90">
        <path
           d="m 0,0 c -0.045,0.092 -0.141,0.148 -0.242,0.148 l -6.822,0 3.023,10.481 c 0.035,0.127 -0.023,0.262 -0.143,0.318 -0.119,0.057 -0.263,0.022 -0.339,-0.086 L -14.83,-3.557 c -0.059,-0.082 -0.066,-0.189 -0.018,-0.281 0.043,-0.09 0.139,-0.148 0.241,-0.148 l 5.878,0 -3.744,-12.297 c -0.039,-0.127 0.018,-0.264 0.137,-0.322 0.037,-0.02 0.08,-0.03 0.121,-0.03 0.086,0 0.166,0.039 0.219,0.11 l 11.973,16.24 C 0.037,-0.203 0.045,-0.094 0,0"
           style="fill:#d5f1a1;fill-opacity:1;fill-rule:nonzero;stroke:none"
           id="path92" />
      </g>
      <g
         transform="translate(42.4551,83.9961)"
         id="g94">
        <path
           d="m 0,0 c -0.047,0.092 -0.143,0.148 -0.244,0.148 l -6.822,0 3.023,10.481 c 0.037,0.127 -0.021,0.262 -0.143,0.318 -0.119,0.057 -0.263,0.022 -0.337,-0.086 L -14.83,-3.557 c -0.059,-0.082 -0.068,-0.189 -0.02,-0.281 0.045,-0.09 0.141,-0.148 0.241,-0.148 l 5.88,0 -3.746,-12.297 c -0.037,-0.127 0.02,-0.264 0.139,-0.322 0.037,-0.02 0.08,-0.03 0.121,-0.03 0.084,0 0.166,0.039 0.217,0.11 l 11.973,16.24 C 0.035,-0.203 0.043,-0.094 0,0"
           style="fill:#d5f1a1;fill-opacity:1;fill-rule:nonzero;stroke:none"
           id="path96" />
      </g>
      <g
         transform="translate(54.1797,72.1426)"
         id="g98">
        <path
           d="m 0,0 c -0.045,0.092 -0.141,0.148 -0.242,0.148 l -6.822,0 3.023,10.481 c 0.035,0.127 -0.023,0.262 -0.143,0.318 -0.119,0.057 -0.263,0.022 -0.339,-0.086 L -14.83,-3.557 c -0.059,-0.082 -0.066,-0.189 -0.018,-0.281 0.043,-0.09 0.139,-0.148 0.241,-0.148 l 5.878,0 -3.744,-12.297 c -0.039,-0.127 0.018,-0.264 0.137,-0.322 0.037,-0.02 0.08,-0.03 0.121,-0.03 0.086,0 0.166,0.039 0.219,0.11 l 11.973,16.24 C 0.037,-0.203 0.045,-0.094 0,0"
           style="fill:#d5f1a1;fill-opacity:1;fill-rule:nonzero;stroke:none"
           id="path100" />
      </g>
    </pattern>
  </defs>
  <sodipodi:namedview
     id="base"
     pagecolor="#ffffff"
     bordercolor="#666666"
     borderopacity="1.0"
     inkscape:pageopacity="0.0"
     inkscape:pageshadow="2"
     inkscape:zoom="0.35"
     inkscape:cx="375"
     inkscape:cy="520"
     inkscape:document-units="px"
     inkscape:current-layer="layer1"
     showgrid="false"
     inkscape:window-width="1920"
     inkscape:window-height="1016"
     inkscape:window-x="0"
     inkscape:window-y="27"
     inkscape:window-maximized="1" />
  <metadata
     id="metadata13647">
    <rdf:RDF>
      <cc:Work
         rdf:about="">
        <dc:format>image/svg+xml</dc:format>
        <dc:type
           rdf:resource="http://purl.org/dc/dcmitype/StillImage" />
        <dc:title></dc:title>
      </cc:Work>
    </rdf:RDF>
  </metadata>
  <g
     inkscape:label="Layer 1"
     inkscape:groupmode="layer"
     id="layer1">
    <g
       id="g12"
       transform="matrix(1.25,0,0,-1.4563406,-97.142859,1050.9524)">
      <g
         id="g14"
         clip-path="url(#clipPath16)">
        <g
           id="g20">
          <g
             id="g22" />
          <g
             id="g102">
            <g
               clip-path="url(#clipPath24)"
               id="g104"
               style="opacity:0.19999701">
              <path
                 d="m 804.499,-5.828 -808.999,0 0,731.687 808.999,0 0,-731.687 z"
                 style="fill:url(#pattern28);fill-opacity:1;fill-rule:nonzero;stroke:none"
                 id="path106"
                 inkscape:connector-curvature="0" />
            </g>
          </g>
        </g>
      </g>
    </g>
  </g>
</svg>
