<?xml version="1.0" encoding="utf-8"?>
<!-- Generator: Adobe Illustrator 19.2.1, SVG Export Plug-In . SVG Version: 6.00 Build 0)  -->
<svg version="1.1" id="Layer_1" xmlns="http://www.w3.org/2000/svg" xmlns:xlink="http://www.w3.org/1999/xlink" x="0px" y="0px"
	 viewBox="0 0 253.9 66.5" style="enable-background:new 0 0 253.9 66.5;" xml:space="preserve">
<style type="text/css">
	.st0{fill:#BCBEC0;}
	.st1{fill:#E6E7E8;}
	.st2{fill:#8DD124;}
</style>
<path class="st0" d="M250.2,19.4c2,0,3.6,1.6,3.6,3.6v20.5c0,2-1.6,3.6-3.6,3.6h-12.7c-2,0-3.6-1.6-3.6-3.6V23c0-2,1.6-3.6,3.6-3.6
	H250.2z"/>
<path class="st0" d="M16.3,19.4c2,0,3.6,1.6,3.6,3.6v20.5c0,2-1.6,3.6-3.6,3.6H3.6c-2,0-3.6-1.6-3.6-3.6V23c0-2,1.6-3.6,3.6-3.6
	H16.3z"/>
<path class="st1" d="M237.9,0c3.5,0,6.3,2.8,6.3,6.3v53.8c0,3.5-2.8,6.3-6.3,6.3H16.6c-3.5,0-6.3-2.8-6.3-6.3V6.3
	c0-3.5,2.8-6.3,6.3-6.3H237.9z"/>
<path class="st2" d="M230.3,10.2L28,10.1h-3.9c-2,0-3.6,1.6-3.6,3.6v38.9c0,2,1.6,3.6,3.6,3.6l3.9,0h202.3c2,0,3.6-1.6,3.6-3.6V13.8
	C234,11.8,232.3,10.2,230.3,10.2z"/>
</svg>
