<?xml version="1.0" encoding="utf-8"?>
<!-- Generator: Adobe Illustrator 19.2.1, SVG Export Plug-In . SVG Version: 6.00 Build 0)  -->
<svg version="1.1" id="Layer_1" xmlns="http://www.w3.org/2000/svg" xmlns:xlink="http://www.w3.org/1999/xlink" x="0px" y="0px"
	 viewBox="0 0 63.5 28.8" style="enable-background:new 0 0 63.5 28.8;" xml:space="preserve">
<style type="text/css">
	.st0{fill:#C37139;}
	.st1{fill:#FFFFFF;}
</style>
<path class="st0" d="M62.1,28.2c-0.9-2.2-1-6.8-0.3-13.2c0.6-6,1.7-11.5,1.7-11.6c0-0.2,0-0.4-0.2-0.5c-0.2-0.1-0.4-0.1-0.5,0
	l-9.3,5.7c-0.2,0.1-0.3,0.3-0.2,0.5c0.2,1.1,0.3,2.3,0.3,3.6c-0.4-0.1-0.8-0.1-1.2-0.2c0-0.2,0-0.4,0-0.6l0-0.2c0-0.2,0-0.3,0-0.5
	c0-0.2,0-0.4-0.1-0.7l-0.1-0.7c0-0.1,0-0.2,0-0.2c0-0.1,0-0.2-0.1-0.3L51.9,9c0-0.1-0.1-0.2-0.1-0.3l-0.1-0.2c0,0,0-0.1,0-0.1
	l-0.1-0.3c0-0.1-0.1-0.2-0.1-0.3c-0.1-0.1-0.1-0.2-0.2-0.3L51,7.6c0,0,0,0,0-0.1l0.2-0.2c0,0,0-0.1-0.1-0.2l-0.2-0.3
	c-0.1-0.2-0.4-0.2-0.6-0.2C50,6.8,49.9,7,49.9,7.2l0,0.3l0.1,0l-0.1,0l0.1,0.1l-0.1,0.1l0.2,0l0.1,0.1L50,7.7l0.2,0l0,0c0,0,0,0,0,0
	L50,7.9l0,0.6c0,0,0,0.1,0,0.1c0,0.1,0,0.2,0,0.2l0,0.1c0,0,0,0.1,0,0.1l0.5,0l0,0L50,9.2l-0.1,1.2c0,0,0,0.1,0,0.1
	c0,0.1,0,0.1,0,0.2l0,0.3c0,0.1,0,0.2,0,0.3l0,0.3l0.5,0.1l-0.5,0.1c0,0,0,0.1,0,0.2l0,0.1c-0.9-0.1-1.9-0.2-3-0.4
	c0.1-0.6,0.1-1.2,0.1-1.7c0-1.1-0.2-2.2-0.5-3c-0.1-0.4-0.3-0.8-0.5-1.2c-0.2-0.4-0.4-0.7-0.6-0.9C45,4.8,45,4.7,44.9,4.6
	c-0.1-0.1-0.1-0.1-0.2-0.2l-0.2-0.2c-0.2-0.1-0.4-0.2-0.6,0c-0.2,0.1-0.3,0.4-0.2,0.6L43.8,5c0,0.1,0.1,0.3,0.1,0.5
	C44,5.7,44.1,6,44.1,6.3c0,0.3,0.1,0.6,0.1,1c0,0.7,0,1.6-0.1,2.6c0,0.5-0.1,1-0.2,1.5c-0.8-0.1-1.7-0.1-2.5-0.2
	c0-0.5,0.1-1.1,0.1-1.6c0-0.6,0-1.2-0.1-1.8c0-0.3-0.1-0.6-0.1-0.9c-0.1-0.3-0.1-0.5-0.2-0.7c-0.1-0.4-0.2-0.9-0.4-1.3l0-0.1
	c-0.1-0.1-0.1-0.3-0.2-0.5l-0.2-0.4c-0.1-0.1-0.1-0.3-0.2-0.4c0-0.1-0.1-0.1-0.1-0.1c0,0-0.1-0.1-0.1-0.1c-0.1-0.1-0.2-0.2-0.2-0.2
	c-0.1-0.2-0.4-0.2-0.6-0.1c-0.2,0.1-0.3,0.3-0.3,0.5L38.9,4c0,0.1,0,0.2,0,0.3C39,4.6,39,4.9,39,5.2c0,0.4,0,0.8,0.1,1.2v0.2
	c0,0.2,0,0.3,0,0.5c0,0.2,0,0.5,0,0.7c0,0.5-0.1,1-0.1,1.6c-0.1,0.5-0.1,1-0.2,1.6c-1.1-0.1-2.2-0.1-3.3-0.2c0.1-1,0.2-1.9,0.2-2.8
	c0-0.7,0-1.3-0.1-1.9c0-0.3-0.1-0.6-0.1-0.9l-0.1-0.5c0-0.1,0-0.2-0.1-0.3c-0.1-0.5-0.3-1-0.5-1.4c-0.2-0.4-0.4-0.8-0.6-1.1
	c-0.1-0.1-0.2-0.3-0.3-0.4c-0.1-0.1-0.1-0.2-0.2-0.2l-0.2-0.2c-0.2-0.2-0.4-0.2-0.6,0c-0.2,0.1-0.3,0.4-0.2,0.6c0,0,0,0.1,0.1,0.2
	c0,0,0,0.1,0,0.1c0,0.1,0,0.1,0.1,0.2l0.1,0.2l0.3-0.1c0,0,0,0,0,0l-0.3,0.2C33,2.7,33.1,3,33.1,3.4c0,0.4,0.1,0.8,0.1,1.3
	c0,0.1,0,0.2,0,0.2c0,0.1,0,0.2,0,0.2l0,0.4c0,0.3,0,0.5,0,0.8c0,0.5-0.1,1.1-0.1,1.7c-0.1,0.9-0.2,1.9-0.3,2.8c-1,0-2-0.1-3-0.1
	l0-0.2c0-0.1,0-0.3,0-0.4l0-0.5c0,0,0-0.1,0-0.1l0-0.1c0-0.1,0-0.2,0-0.3l0-0.6c0-0.2,0-0.3,0-0.5l-0.1-0.5c-0.1-0.7-0.2-1.4-0.4-2
	l-0.1-0.2c0-0.1,0-0.2-0.1-0.2c0-0.2-0.1-0.3-0.1-0.5l0-0.2c0-0.1-0.1-0.2-0.1-0.3c0-0.1-0.1-0.2-0.1-0.3c-0.2-0.5-0.3-0.9-0.5-1.2
	l-0.1-0.2c0-0.1-0.1-0.1-0.1-0.2l-0.3-0.6c-0.1-0.1-0.1-0.2-0.2-0.3c-0.2-0.3-0.3-0.5-0.4-0.6L27,0.2C26.8,0,26.6,0,26.4,0.1
	c-0.2,0.1-0.3,0.3-0.3,0.6l0.2,0.9c0,0.2,0.1,0.4,0.1,0.7l0.2,1.1c0,0.2,0.1,0.3,0.1,0.5l0.1,0.6c0,0.1,0,0.2,0,0.2l0.1,0.5
	c0,0.2,0,0.3,0,0.5C27,6.2,27,6.8,27,7.5l0,0.7l0,0.5c0,0.2,0,0.5,0,0.7L27,10.5c-2.8-0.1-5-0.1-6-0.1l-0.6-10
	c0-0.1-0.1-0.3-0.2-0.4C20.1,0,20,0,19.8,0C19.7,0,4.6,2.6,0,18c-0.1,0.2,0,0.4,0.2,0.5c0.3,0.2,6.3,4.6,16.3,4.6
	c1.6,0,3.2-0.1,4.7-0.3c0.3,0,0.4-0.3,0.4-0.5l-0.5-9.1c0.9,0,2.9,0,5.5,0.1c0,0.1,0,0.1,0,0.2c0,0.2,0,0.3-0.1,0.5
	c0,0.2,0,0.3-0.1,0.5l-0.2,1c0,0.2-0.1,0.3-0.1,0.5L26,17.5c0,0.2-0.1,0.3-0.1,0.5l-0.1,0.4c0,0.1-0.1,0.3-0.1,0.4
	c-0.1,0.5-0.2,1-0.3,1.4l-0.5,2c-0.1,0.2,0,0.4,0.2,0.5c0.2,0.1,0.4,0.1,0.6-0.1c0,0,0,0,0.1-0.2l0.1-0.1c0.1-0.1,0.2-0.4,0.4-0.6
	c0.2-0.3,0.4-0.6,0.6-1c0.1-0.1,0.2-0.3,0.2-0.4l0.1-0.2c0-0.1,0.1-0.2,0.1-0.2l0.2-0.5c0.2-0.5,0.4-1.1,0.7-1.6
	c0.2-0.7,0.4-1.3,0.6-1.9c0-0.2,0.1-0.3,0.1-0.6c0-0.1,0.1-0.3,0.1-0.5c0.1-0.3,0.1-0.5,0.2-0.8l0.1-0.3c0-0.1,0-0.2,0.1-0.4l0-0.1
	c0.9,0,1.9,0.1,2.8,0.1l-1,6.9c0,0.2-0.1,0.5-0.1,0.7l0,0.4c-0.1,0.6-0.1,1-0.1,1c0,0.2,0.1,0.4,0.3,0.5c0.2,0.1,0.5,0,0.6-0.2
	c0,0,0.2-0.3,0.5-0.9c0.1-0.3,0.3-0.6,0.4-1c0.2-0.4,0.3-0.8,0.5-1.3c0.2-0.5,0.4-1,0.5-1.6c0.2-0.6,0.4-1.2,0.5-1.8
	c0.2-0.7,0.4-1.6,0.6-2.5c1.1,0.1,2.1,0.1,3.2,0.2c-0.2,0.9-0.3,1.8-0.5,2.6l-0.9,4.3c-0.1,0.4-0.1,0.7-0.2,1
	c-0.1,0.5-0.2,0.9-0.2,0.9c0,0.2,0.1,0.5,0.3,0.5c0.2,0.1,0.5,0,0.6-0.2c0,0,0.2-0.3,0.5-0.8c0.2-0.2,0.3-0.5,0.5-0.9
	c0.2-0.3,0.4-0.7,0.6-1.2c0.2-0.4,0.4-0.9,0.6-1.4c0.2-0.5,0.4-1.1,0.6-1.6c0.3-1,0.6-2,0.8-3.1c0.8,0.1,1.6,0.1,2.4,0.2
	c-0.1,0.6-0.2,1.2-0.3,1.8l-0.1,0.6c-0.1,0.8-0.3,1.5-0.4,2.1l-0.2,1.1c-0.1,0.3-0.1,0.6-0.1,0.9c-0.1,0.5-0.1,0.8-0.1,0.8
	c0,0.2,0.1,0.4,0.3,0.5c0.2,0.1,0.4,0,0.6-0.2c0,0,0.2-0.2,0.4-0.7c0.1-0.2,0.3-0.5,0.5-0.8c0.2-0.3,0.3-0.7,0.5-1
	c0.4-0.8,0.7-1.8,1-2.7c0.2-0.7,0.4-1.4,0.6-2.2c1,0.1,2,0.2,2.9,0.3l-0.6,3.1c-0.1,0.4-0.1,0.8-0.2,1.1c-0.1,0.3-0.1,0.7-0.1,0.9
	l0,0.3c0,0.2,0,0.3-0.1,0.4c0,0.4-0.1,0.7-0.1,0.7c0,0.2,0.1,0.4,0.3,0.5c0.2,0.1,0.4,0,0.6-0.1l0.2-0.3c0.1-0.1,0.1-0.2,0.2-0.3
	c0.2-0.3,0.6-0.8,0.9-1.5c0.2-0.3,0.3-0.7,0.5-1c0.1-0.1,0.1-0.2,0.2-0.4l0.3-0.8c0.2-0.4,0.3-0.9,0.4-1.3c0.1-0.2,0.1-0.5,0.2-0.7
	c0-0.1,0-0.1,0-0.2c0.5,0.1,0.9,0.2,1.3,0.2c-0.5,3.4-1.5,5.9-1.5,5.9c-0.1,0.2,0,0.5,0.2,0.6l9.5,6.9"/>
<ellipse transform="matrix(0.8544 -0.5197 0.5197 0.8544 -2.5287 8.522)" class="st1" cx="13.9" cy="8.8" rx="2.5" ry="2.5"/>
</svg>
