<?xml version="1.0" encoding="utf-8"?>
<!-- Generator: Adobe Illustrator 19.2.1, SVG Export Plug-In . SVG Version: 6.00 Build 0)  -->
<svg version="1.1" id="Layer_1" xmlns="http://www.w3.org/2000/svg" xmlns:xlink="http://www.w3.org/1999/xlink" x="0px" y="0px"
	 viewBox="0 0 773.9 127.4" style="enable-background:new 0 0 773.9 127.4;" xml:space="preserve">
<style type="text/css">
	.st0{fill:none;stroke:#8DD124;stroke-width:4;stroke-linecap:round;stroke-linejoin:round;stroke-miterlimit:10;}
	.st1{fill:#BCBEC0;}
	.st2{fill:#E6E7E8;}
	.st3{fill:#878787;}
	.st4{fill:#F4E8AB;}
	.st5{fill:#8F0606;}
	.st6{fill:#6A9D1B;}
	.st7{fill:#C37139;}
	.st8{fill:#8DD124;}
	.st9{fill:#BF0808;}
</style>
<polyline class="st0" points="733.5,29.2 733.5,2 2,2 2,109.6 771.9,109.6 "/>
<g>
	<path class="st1" d="M725.6,30.4c0-1.1,0.9-2,2-2h11.2c1.1,0,2,0.9,2,2v7c0,1.1-0.9,2-2,2h-11.2c-1.1,0-2-0.9-2-2V30.4z"/>
	<g>
		<path class="st1" d="M738.5,55.6c0-2.1,1.7-3.8,3.8-3.8l0,0c2.1,0,3.8,1.7,3.8,3.8v20c0,2.1-1.7,3.8-3.8,3.8l0,0
			c-2.1,0-3.8-1.7-3.8-3.8V55.6z"/>
		<path class="st1" d="M720.4,55.6c0-2.1,1.7-3.8,3.8-3.8l0,0c2.1,0,3.8,1.7,3.8,3.8v20c0,2.1-1.7,3.8-3.8,3.8l0,0
			c-2.1,0-3.8-1.7-3.8-3.8V55.6z"/>
	</g>
	<path class="st2" d="M715.7,36.5c0-1.5,1.2-2.7,2.7-2.7H748c1.5,0,2.7,1.2,2.7,2.7v22.2c0,1.5-1.2,2.7-2.7,2.7h-29.6
		c-1.5,0-2.7-1.2-2.7-2.7V36.5z"/>
	<path class="st3" d="M711.9,57.2c0-1.5,1.2-2.7,2.7-2.7h37.1c1.5,0,2.7,1.2,2.7,2.7v2.9c0,1.5-1.2,2.7-2.7,2.7h-37.1
		c-1.5,0-2.7-1.2-2.7-2.7V57.2z"/>
</g>
<g>
	<path class="st4" d="M73.2,79.1c-1.4,0.6-3,1.1-3,1.1s-1.9-0.1-2.5,1.3c-0.6,1.4-0.6,2.5-0.6,2.5s-0.9-0.2-1.9,1.6v2.5
		c0,0-1.6,1.5-1.9,2c-0.2,0.6,0.1,3,0.1,3s-1.3,2.5-1.2,2.8c0.1,0.3,0.9,1.9,0,3.2v2.1c0,0,1.6,3.6,3.1,3.1l0.1,2.7
		c0,0,1,2.1,1.5,2.4c0.5,0.3,0.5,2.3,0.5,2.3s1,1.6,3.8,1.3c0,0,1.3-2,4-0.7c0,0,0.8,0.3,1.7-0.4c0.8-0.7,2.9-3.4,2.9-3.4
		c-21.2-11.8-2.4-28.2-2.4-28.2h-1.1C76.3,80.3,74.6,78.5,73.2,79.1z"/>
	<path class="st5" d="M47.6,80.6c4.1,1,8.7,0,12.3-5.9v0c-2.7,1.1-6.4,2-10.5,1.5c-1-0.1-2-0.3-2.8-0.5c-1.7-0.9-5.6-2.6-10.4-2.3
		C36.2,73.5,41.5,79.2,47.6,80.6z"/>
	<g>
		<path class="st6" d="M50.5,77.6c0.2-3,2.8-6.9,2.8-7L52.4,70c-0.1,0.2-2.9,4.2-3,7.6L50.5,77.6z"/>
	</g>
	<path class="st7" d="M50.6,80.7c0,0,0.5-13.5-8.4-21.5c0,0-4.2-3.6-6.9,1.8c0,0-1.3,2.1,1.3,3.7c2.5,1.6,9.2,6.9,10.4,16.4
		L50.6,80.7z"/>
	<path class="st8" d="M50.7,66.9c0.4-1.4,1.3-2.3,1.3-2.3c1.9-1.8,3.8-3.1,5.8-3.8c3.3-1.2,6.1-0.5,7.9,0.2c1.9,0.8,3.1,1.9,3.1,1.9
		c0,0,0,0.1,0,0.1c0,0-0.1,0.1-0.1,0.1c-1,0-1.9,0.2-2.8,0.5c-2.5,0.9-4.8,2.9-7.5,6.4c-0.9,1.2-1.9,2-2.9,2.3
		c-2,0.7-3.4-0.4-3.5-0.4c0,0,0,0,0,0C50.2,70,50.3,68.1,50.7,66.9z"/>
	<path class="st9" d="M30.4,74.9c1.3-0.5,2.9-1.1,4.8-1.4c0.4-0.1,0.7-0.1,1.1-0.1c0,0,5.3,5.7,11.4,7.1c1,0.2,2.1,0.4,3.1,0.3
		c3.2-0.1,6.4-1.8,9.2-6.2v0c1-0.4,2-0.8,2.7-1.3c0,0,8.6-1.2,14.7,6.9h-1.1c0,0-1.7-1.7-3.1-1.1c-1.4,0.6-3,1.1-3,1.1
		s-1.9-0.1-2.5,1.3c-0.6,1.4-0.6,2.5-0.6,2.5s-0.9-0.2-1.9,1.6v2.5c0,0-1.6,1.5-1.9,2c-0.2,0.6,0.1,3,0.1,3s-1.3,2.5-1.2,2.8
		c0.1,0.3,0.9,1.9,0,3.2v2.1c0,0,1.6,3.6,3.1,3.1l0.1,2.7c0,0,1,2.1,1.5,2.4c0.5,0.3,0.5,2.3,0.5,2.3s1,1.6,3.8,1.3c0,0,1.3-2,4-0.7
		c0,0,0.8,0.3,1.7-0.4c0.8-0.7,2.9-3.4,2.9-3.4s-8.1,19.3-16.9,18.8c-6.5-0.4-5.8-3.6-12.1-3c-2.3,0.2-5.5,1-10.2,2.6
		C22.6,132.9,8.9,80.9,30.4,74.9z"/>
</g>
</svg>
