<?xml version="1.0" encoding="utf-8"?>
<!-- Generator: Adobe Illustrator 19.2.1, SVG Export Plug-In . SVG Version: 6.00 Build 0)  -->
<svg version="1.1" id="Layer_1" xmlns="http://www.w3.org/2000/svg" xmlns:xlink="http://www.w3.org/1999/xlink" x="0px" y="0px"
	 viewBox="0 0 2.1 13.8" style="enable-background:new 0 0 2.1 13.8;" xml:space="preserve">
<style type="text/css">
	.st0{fill:#8DD124;}
</style>
<path class="st0" d="M1.5,6.5c0.1,0,0.2-0.1,0.2-0.2V0.3C1.6,0.1,1.5,0,1.4,0C1.2,0,1.1,0.1,1.1,0.2L0.1,3.5c-0.3,1-0.1,2,0.5,2.8
	c0.1,0.1,0.1,0.1,0.2,0.1l-0.6,6.2c0,0.3,0.1,0.5,0.2,0.7c0.2,0.2,0.4,0.3,0.7,0.3c0.3,0,0.5-0.1,0.7-0.3C2,13.3,2.1,13,2.1,12.7
	L1.5,6.5z M1.5,6.5"/>
</svg>
