<?xml version="1.0" encoding="utf-8"?>
<!-- Generator: Adobe Illustrator 19.2.1, SVG Export Plug-In . SVG Version: 6.00 Build 0)  -->
<svg version="1.1" id="Layer_1" xmlns="http://www.w3.org/2000/svg" xmlns:xlink="http://www.w3.org/1999/xlink" x="0px" y="0px"
	 viewBox="0 0 7.4 13.7" style="enable-background:new 0 0 7.4 13.7;" xml:space="preserve">
<style type="text/css">
	.st0{fill:#8DD124;}
</style>
<path class="st0" d="M7.4,5.4c0,0-0.1-0.1-0.1-0.1H3.9l1.5-5.2c0-0.1,0-0.1-0.1-0.2c-0.1,0-0.1,0-0.2,0L0,7.2c0,0,0,0.1,0,0.1
	c0,0,0.1,0.1,0.1,0.1H3l-1.9,6.1c0,0.1,0,0.1,0.1,0.2c0,0,0,0,0.1,0c0,0,0.1,0,0.1-0.1l5.9-8C7.4,5.5,7.4,5.5,7.4,5.4z"/>
</svg>
